# xmcd
#
# Track frame offsets: 
#        150
#        14018
#        27030
#        37157
#        49278
#        64671
#        76590
#        88600
#        105185
#        122907
#        134826
#        149484
#        162010
#
# Disc length: 2354 seconds
#
# Revision: 0
# Processed by: cddbd v1.5.2PL0 Copyright (c) Steve Scherf et al.
# Submitted via: ExactAudioCopy v1.3
#
DISCID=ad09300d
DTITLE=Katka a dedko Kubacakovci - Ten nas kostolik
DYEAR=2012
DGENRE=Folklore
TTITLE0=A vychodzi slnecko
TTITLE1=Ked som isiel skoro rano
TTITLE2=Vajcovske dievcata
TTITLE3=Okolo Trencina
TTITLE4=Ten nas kostolik
TTITLE5=Ja som drotar
TTITLE6=Chodila som po zahradke
TTITLE7=Co to tam suchoce
TTITLE8=Tak jak tece do Dunaja Morava
TTITLE9=Uz ja viacej
TTITLE10=Keby ja vedela
TTITLE11=Iba jednu mamicku mas
TTITLE12=Ked som siel ku milej
EXTD=
EXTT0=
EXTT1=
EXTT2=
EXTT3=
EXTT4=
EXTT5=
EXTT6=
EXTT7=
EXTT8=
EXTT9=
EXTT10=
EXTT11=
EXTT12=
PLAYORDER=
